<?xml version="1.0" encoding="utf-8"?>
<!-- Generator: Adobe Illustrator 17.1.0, SVG Export Plug-In . SVG Version: 6.00 Build 0)  -->
<!DOCTYPE svg PUBLIC "-//W3C//DTD SVG 1.1//EN" "http://www.w3.org/Graphics/SVG/1.1/DTD/svg11.dtd">
<svg version="1.1" id="Calque_1" xmlns="http://www.w3.org/2000/svg" xmlns:xlink="http://www.w3.org/1999/xlink" x="0px" y="0px"
	 viewBox="0 0 373 600" enable-background="new 0 0 373 600" xml:space="preserve">
<g>
	<g>
		<path fill="#D3243A" d="M187,594.3c-4.2,0-8.3-1.6-11.5-4.8L9.1,423.1c-6.4-6.4-6.4-16.7,0-23c6.4-6.4,16.7-6.4,23,0L187,554.9
			l154.9-154.9c6.4-6.4,16.7-6.4,23,0c6.4,6.4,6.4,16.7,0,23L198.5,589.5C195.3,592.7,191.2,594.3,187,594.3z"/>
	</g>
	<g opacity="0.49">
		<path fill="#D3243A" d="M187,398.7c-4.2,0-8.3-1.6-11.5-4.8L9.1,227.6c-6.4-6.4-6.4-16.7,0-23c6.4-6.4,16.7-6.4,23,0L187,359.4
			l154.9-154.9c6.4-6.4,16.7-6.4,23,0c6.4,6.4,6.4,16.7,0,23L198.5,393.9C195.3,397.1,191.2,398.7,187,398.7z"/>
	</g>
	<g opacity="0.2">
		<path fill="#D3243A" d="M187,203.2c-4.2,0-8.3-1.6-11.5-4.8L9.1,32c-6.4-6.4-6.4-16.7,0-23c6.4-6.4,16.7-6.4,23,0L187,163.8
			L341.9,9c6.4-6.4,16.7-6.4,23,0c6.4,6.4,6.4,16.7,0,23L198.5,198.4C195.3,201.6,191.2,203.2,187,203.2z"/>
	</g>
</g>
</svg>
