<?xml version="1.0" encoding="utf-8"?>
<!-- Generator: Adobe Illustrator 17.1.0, SVG Export Plug-In . SVG Version: 6.00 Build 0)  -->
<!DOCTYPE svg PUBLIC "-//W3C//DTD SVG 1.1//EN" "http://www.w3.org/Graphics/SVG/1.1/DTD/svg11.dtd">
<svg version="1.1" id="Calque_1" xmlns="http://www.w3.org/2000/svg" xmlns:xlink="http://www.w3.org/1999/xlink" x="0px" y="0px"
	 viewBox="0 0 30 20" enable-background="new 0 0 30 20" xml:space="preserve">
<g>
	<g>
		<path d="M20.5,18.4c-0.3,0-0.5-0.1-0.7-0.3c-0.4-0.4-0.4-1,0-1.4l7.4-7.4l-7.4-7.4c-0.4-0.4-0.4-1,0-1.4s1-0.4,1.4,0l8.2,8.2
			c0.4,0.4,0.4,1,0,1.4l-8.2,8.2C21,18.3,20.8,18.4,20.5,18.4z"/>
	</g>
	<g opacity="0.49">
		<path d="M10.9,18.4c-0.3,0-0.5-0.1-0.7-0.3c-0.4-0.4-0.4-1,0-1.4l7.4-7.4l-7.4-7.4c-0.4-0.4-0.4-1,0-1.4s1-0.4,1.4,0l8.2,8.2
			c0.4,0.4,0.4,1,0,1.4l-8.2,8.2C11.5,18.3,11.2,18.4,10.9,18.4z"/>
	</g>
	<g opacity="0.2">
		<path d="M1.4,18.4c-0.3,0-0.5-0.1-0.7-0.3c-0.4-0.4-0.4-1,0-1.4l7.4-7.4L0.7,1.8c-0.4-0.4-0.4-1,0-1.4s1-0.4,1.4,0l8.2,8.2
			c0.2,0.2,0.3,0.4,0.3,0.7s-0.1,0.5-0.3,0.7l-8.2,8.2C1.9,18.3,1.6,18.4,1.4,18.4z"/>
	</g>
</g>
</svg>
