<?xml version="1.0" encoding="utf-8"?>
<!-- Generator: Adobe Illustrator 17.1.0, SVG Export Plug-In . SVG Version: 6.00 Build 0)  -->
<!DOCTYPE svg PUBLIC "-//W3C//DTD SVG 1.1//EN" "http://www.w3.org/Graphics/SVG/1.1/DTD/svg11.dtd">
<svg version="1.1" id="Calque_1" xmlns="http://www.w3.org/2000/svg" xmlns:xlink="http://www.w3.org/1999/xlink" x="0px" y="0px"
	 viewBox="0 0 1181 24" enable-background="new 0 0 1181 24" xml:space="preserve">
<g>
	<rect x="879" y="12" fill="#AEAEAE" width="302" height="1"/>
</g>
<g>
	<rect x="1" y="12" fill="#AEAEAE" width="298" height="1"/>
</g>
<g>
	<g>
		<path fill="#D3243A" d="M336.3,19.3c-0.2,0-0.3-0.1-0.4-0.2c-0.2-0.2-0.2-0.6,0-0.9l6-6l-6-6c-0.2-0.2-0.2-0.6,0-0.9
			c0.2-0.2,0.6-0.2,0.9,0l6.4,6.4c0.2,0.2,0.2,0.6,0,0.9l-6.4,6.4C336.6,19.2,336.5,19.3,336.3,19.3z"/>
	</g>
	<g opacity="0.49">
		<path fill="#D3243A" d="M328.8,19.3c-0.2,0-0.3-0.1-0.4-0.2c-0.2-0.2-0.2-0.6,0-0.9l6-6l-6-6c-0.2-0.2-0.2-0.6,0-0.9
			c0.2-0.2,0.6-0.2,0.9,0l6.4,6.4c0.2,0.2,0.2,0.6,0,0.9l-6.4,6.4C329.1,19.2,329,19.3,328.8,19.3z"/>
	</g>
	<g opacity="0.2">
		<path fill="#D3243A" d="M321.3,19.3c-0.2,0-0.3-0.1-0.4-0.2c-0.2-0.2-0.2-0.6,0-0.9l6-6l-6-6c-0.2-0.2-0.2-0.6,0-0.9
			c0.2-0.2,0.6-0.2,0.9,0l6.4,6.4c0.2,0.2,0.2,0.6,0,0.9l-6.4,6.4C321.6,19.2,321.4,19.3,321.3,19.3z"/>
	</g>
</g>
<g>
	<g>
		<path fill="#D3243A" d="M842.7,19.3c-0.2,0-0.3-0.1-0.4-0.2l-6.4-6.4c-0.2-0.2-0.2-0.6,0-0.9l6.4-6.4c0.2-0.2,0.6-0.2,0.9,0
			c0.2,0.2,0.2,0.6,0,0.9l-6,6l6,6c0.2,0.2,0.2,0.6,0,0.9C843,19.2,842.8,19.3,842.7,19.3z"/>
	</g>
	<g opacity="0.49">
		<path fill="#D3243A" d="M850.2,19.3c-0.2,0-0.3-0.1-0.4-0.2l-6.4-6.4c-0.2-0.2-0.2-0.6,0-0.9l6.4-6.4c0.2-0.2,0.6-0.2,0.9,0
			c0.2,0.2,0.2,0.6,0,0.9l-6,6l6,6c0.2,0.2,0.2,0.6,0,0.9C850.5,19.2,850.4,19.3,850.2,19.3z"/>
	</g>
	<g opacity="0.2">
		<path fill="#D3243A" d="M857.7,19.3c-0.2,0-0.3-0.1-0.4-0.2l-6.4-6.4c-0.2-0.2-0.2-0.6,0-0.9l6.4-6.4c0.2-0.2,0.6-0.2,0.9,0
			c0.2,0.2,0.2,0.6,0,0.9l-6,6l6,6c0.2,0.2,0.2,0.6,0,0.9C858,19.2,857.9,19.3,857.7,19.3z"/>
	</g>
</g>
</svg>
